{"title":"Wiz Khalifa - We Dem Boyz [Music Video] 720p [Sbyky]","uid":10057628,"size":64619986,"categoryP":"video","categoryS":"music_videos","magnet":"?xt=urn:btih:837686e6722a493feb321bd46563ea903e3e6b82&amp;dn=Wiz+Khalifa+-+We+Dem+Boyz+%5BMusic+Video%5D+720p+%5BSbyky%5D&amp;tr=udp%3A%2F%2Ftracker.openbittorrent.com%3A80&amp;tr=udp%3A%2F%2Fopen.demonii.com%3A1337&amp;tr=udp%3A%2F%2Ftracker.coppersurfer.tk%3A6969&amp;tr=udp%3A%2F%2Fexodus.desync.com%3A6969","seeders":1,"leechers":0,"uploader":"Sbyky","files":1,"time":1398684157,"description":"\n\nGeneral\nComplete name                            : Wiz Khalifa - We Dem Boyz [Music Video] 720p [Sbyky].MP4\nFormat                                   : MPEG-4\nFormat profile                           : Base Media\nCodec ID                                 : isom\nFile size                                : 61.6 MiB\nDuration                                 : 3mn 58s\nOverall bit rate mode                    : Variable\nOverall bit rate                         : 2 168 Kbps\nEncoded date                             : UTC 2014-04-13 16:41:14\nTagged date                              : UTC 2014-04-13 16:41:14\n\nVideo\nID                                       : 1\nFormat                                   : AVC\nFormat/Info                              : Advanced Video Codec\nFormat profile                           : &lt;a class=&quot;__cf_email__&quot; href=&quot;/cdn-cgi/l/email-protection&quot; data-cfemail=&quot;6c210d05022c205f425d&quot;&gt;[email&amp;#160;protected]&lt;/a&gt;&lt;script cf-hash='f9e31' type=&quot;text/javascript&quot;&gt;\n/* &lt;![CDATA[ */!function(){try{var t=&quot;currentScript&quot;in document?document.currentScript:function(){for(var t=document.getElementsByTagName(&quot;script&quot;),e=t.length;e--;)if(t[e].getAttribute(&quot;cf-hash&quot;))return t[e]}();if(t&amp;&amp;t.previousSibling){var e,r,n,i,c=t.previousSibling,a=c.getAttribute(&quot;data-cfemail&quot;);if(a){for(e=&quot;&quot;,r=parseInt(a.substr(0,2),16),n=2;a.length-n;n+=2)i=parseInt(a.substr(n,2),16)^r,e+=String.fromCharCode(i);e=document.createTextNode(e),c.parentNode.replaceChild(e,c)}}}catch(u){}}();/* ]]&gt; */&lt;/script&gt;\nFormat settings, CABAC                   : Yes\nFormat settings, ReFrames                : 3 frames\nCodec ID                                 : avc1\nCodec ID/Info                            : Advanced Video Coding\nDuration                                 : 3mn 58s\nBit rate                                 : 2 040 Kbps\nWidth                                    : 1 280 pixels\nHeight                                   : 720 pixels\nDisplay aspect ratio                     : 16:9\nFrame rate mode                          : Variable\nFrame rate                               : 23.976 fps\nMinimum frame rate                       : 23.974 fps\nMaximum frame rate                       : 24.644 fps\nColor space                              : YUV\nChroma subsampling                       : 4:2:0\nBit depth                                : 8 bits\nScan type                                : Progressive\nBits/(Pixel*Frame)                       : 0.092\nStream size                              : 58.0 MiB (94%)\nEncoded date                             : UTC 2014-04-13 16:41:14\nTagged date                              : UTC 2014-04-13 16:41:14\n\nAudio\nID                                       : 2\nFormat                                   : AAC\nFormat/Info                              : Advanced Audio Codec\nFormat profile                           : LC\nCodec ID                                 : 40\nDuration                                 : 3mn 58s\nBit rate mode                            : Variable\nBit rate                                 : 126 Kbps\nChannel(s)                               : 2 channels\nChannel positions                        : Front: L R\nSampling rate                            : 44.1 KHz\nCompression mode                         : Lossy\nStream size                              : 3.57 MiB (6%)\nEncoded date                             : UTC 2014-04-13 16:40:56\nTagged date                              : UTC 2014-04-13 16:40:56\n\nShared By Sbyky\n","torrent":{"xt":"urn:btih:837686e6722a493feb321bd46563ea903e3e6b82","amp;dn":"Wiz+Khalifa+-+We+Dem+Boyz+%5BMusic+Video%5D+720p+%5BSbyky%5D","amp;tr":["udp%3A%2F%2Ftracker.openbittorrent.com%3A80","udp%3A%2F%2Fopen.demonii.com%3A1337","udp%3A%2F%2Ftracker.coppersurfer.tk%3A6969","udp%3A%2F%2Fexodus.desync.com%3A6969"],"infoHash":"837686e6722a493feb321bd46563ea903e3e6b82","infoHashBuffer":{"type":"Buffer","data":[131,118,134,230,114,42,73,63,235,50,27,212,101,99,234,144,62,62,107,130]},"announce":[],"urlList":[]}}